<svg width="300" height="9" viewBox="0 0 300 9" fill="none" xmlns="http://www.w3.org/2000/svg">
<mask id="mask0_539_35" style="mask-type:luminance" maskUnits="userSpaceOnUse" x="0" y="0" width="300" height="9">
<path d="M295.5 0H4.5C2.01472 0 0 2.01472 0 4.5C0 6.98528 2.01472 9 4.5 9H295.5C297.985 9 300 6.98528 300 4.5C300 2.01472 297.985 0 295.5 0Z" fill="white"/>
</mask>
<g mask="url(#mask0_539_35)">
<path d="M295.5 0H4.5C2.01472 0 0 2.01472 0 4.5C0 6.98528 2.01472 9 4.5 9H295.5C297.985 9 300 6.98528 300 4.5C300 2.01472 297.985 0 295.5 0Z" fill="white"/>
<path d="M295.5 0H4.5C2.01472 0 0 2.01472 0 4.5C0 6.98528 2.01472 9 4.5 9H295.5C297.985 9 300 6.98528 300 4.5C300 2.01472 297.985 0 295.5 0Z" fill="#E6E6E6"/>
<path d="M293.779 0H6.2212C2.78533 0 0 2.01472 0 4.5C0 6.98528 2.78533 9 6.2212 9H293.779C297.215 9 300 6.98528 300 4.5C300 2.01472 297.215 0 293.779 0Z" fill="#FFC83D"/>
</g>
</svg>
